<svg width="22" height="22" viewBox="0 0 22 22" fill="none" xmlns="http://www.w3.org/2000/svg">
<path d="M5.64645 10.6464C5.45118 10.8417 5.45118 11.1583 5.64645 11.3536L8.82843 14.5355C9.02369 14.7308 9.34027 14.7308 9.53553 14.5355C9.7308 14.3403 9.7308 14.0237 9.53553 13.8284L6.70711 11L9.53553 8.17157C9.7308 7.97631 9.7308 7.65973 9.53553 7.46447C9.34027 7.2692 9.02369 7.2692 8.82843 7.46447L5.64645 10.6464ZM16 11.5C16.2761 11.5 16.5 11.2761 16.5 11C16.5 10.7239 16.2761 10.5 16 10.5L16 11.5ZM6 11.5L16 11.5L16 10.5L6 10.5L6 11.5Z" fill="white"/>
</svg>
